<svg id="_1" data-name="1" xmlns="http://www.w3.org/2000/svg" viewBox="0 0 708 228"><defs><style>.cls-1,.cls-2{fill:none;stroke-linecap:round;stroke-linejoin:round;stroke-width:8px;}.cls-1{stroke:#789;}.cls-2{stroke:#ff5a00;}</style></defs><title>stringer</title><path class="cls-1" d="M709.93,119.83a8.55,8.55,0,0,0-3.14-7.25c-2.37-2.11-59.52-52-173.73-81.66C428.44,3.78,254.12-10.51,17.79,75.63c-4.1,1.49-6.95,4.35-7.63,7.66s0.8,6.5,4,8.8l0.23,0.16L54.1,120,14.35,147.75c-3.31,2.31-4.87,5.66-4.19,9a9.67,9.67,0,0,0,4,5.73,14.84,14.84,0,0,0,3.67,1.93c236.33,86.13,410.65,71.85,515.26,44.7,114.21-29.63,171.35-79.54,173.73-81.65A8.54,8.54,0,0,0,709.93,119.83Z" transform="translate(-6 -6)"/><line class="cls-2" x1="104" y1="114" x2="604" y2="114"/></svg>