<?xml version="1.0" encoding="utf-8"?>
<!-- Generator: Adobe Illustrator 18.0.0, SVG Export Plug-In . SVG Version: 6.00 Build 0)  -->
<!DOCTYPE svg PUBLIC "-//W3C//DTD SVG 1.1//EN" "http://www.w3.org/Graphics/SVG/1.1/DTD/svg11.dtd">
<svg version="1.1" xmlns="http://www.w3.org/2000/svg" xmlns:xlink="http://www.w3.org/1999/xlink" x="0px" y="0px"
	 viewBox="0 0 620 320" style="enable-background:new 0 0 620 320;" xml:space="preserve">
<style type="text/css">
	.st0{fill:#333333;}
	.st1{fill:#FFFFFF;}
</style>
<g id="Layer_2">
	<ellipse class="st0" cx="310" cy="160" rx="300" ry="150"/>
</g>
<g id="Layer_1">
	<g>
		<path class="st1" d="M181.2,178.8c0.6,13.5,9,17.8,21.6,17.8c9,0,18.3-3.2,18.3-11.7c0-10.1-16.4-12-32.9-16.7
			c-16.4-4.6-33.5-12-33.5-33c0-25,25.2-34.8,46.7-34.8c22.8,0,45.7,11.1,45.9,36.9h-29.8c0.5-10.4-9.3-13.8-18.4-13.8
			c-6.4,0-14.4,2.2-14.4,9.8c0,8.8,16.5,10.4,33.2,15.1c16.5,4.6,33.2,12.3,33.2,33c0,29-24.7,38.3-49.9,38.3
			c-26.3,0-49.5-11.5-49.7-40.9H181.2z"/>
		<path class="st1" d="M323.3,217.2h-34.3l-36.1-114.5H284l22.4,85.1h0.3l22.4-85.1h31.1L323.3,217.2z"/>
		<path class="st1" d="M471.4,217.2h-19.2l-1.8-12.5c-7.9,11.1-21.3,14.9-31.9,14.9c-34.6,0-57.1-26.5-57.1-59.6
			c0-33.2,22.4-59.6,57.1-59.6c23.7,0,49.1,12.7,51.8,41.4h-29.8c-1-9.8-10.6-15.7-22.6-15.7c-19.2,0-26.6,17-26.6,34
			c0,17,7.4,34,26.6,34c14.8,0,24.7-6.9,26.3-17.3h-20.8v-22.1h48.1V217.2z"/>
	</g>
</g>
</svg>
